<svg width="110" height="110" viewBox="0 0 110 110" fill="none" xmlns="http://www.w3.org/2000/svg">
<g filter="url(#filter0_d)">
<circle cx="55" cy="51" r="30" fill="white"/>
</g>
<path d="M55.5 60.216C54.588 60.216 53.85 60.048 53.286 59.712C52.734 59.364 52.332 58.878 52.08 58.254C51.828 57.618 51.702 56.88 51.702 56.04V55.536H54.168C54.168 55.572 54.168 55.632 54.168 55.716C54.168 55.8 54.168 55.884 54.168 55.968C54.18 56.424 54.222 56.814 54.294 57.138C54.366 57.462 54.498 57.708 54.69 57.876C54.894 58.044 55.17 58.128 55.518 58.128C55.89 58.128 56.166 58.038 56.346 57.858C56.538 57.678 56.664 57.414 56.724 57.066C56.796 56.718 56.832 56.304 56.832 55.824C56.832 55.08 56.712 54.498 56.472 54.078C56.244 53.646 55.794 53.412 55.122 53.376C55.098 53.376 55.038 53.376 54.942 53.376C54.858 53.376 54.78 53.376 54.708 53.376V51.378C54.768 51.378 54.828 51.378 54.888 51.378C54.96 51.378 55.026 51.378 55.086 51.378C55.746 51.366 56.202 51.192 56.454 50.856C56.706 50.508 56.832 49.956 56.832 49.2C56.832 48.588 56.736 48.108 56.544 47.76C56.364 47.412 56.01 47.238 55.482 47.238C54.966 47.238 54.618 47.43 54.438 47.814C54.27 48.198 54.18 48.696 54.168 49.308C54.168 49.392 54.168 49.482 54.168 49.578C54.168 49.662 54.168 49.752 54.168 49.848H51.702V49.146C51.702 48.318 51.846 47.616 52.134 47.04C52.434 46.452 52.866 46.008 53.43 45.708C53.994 45.396 54.678 45.24 55.482 45.24C56.31 45.24 57.006 45.39 57.57 45.69C58.134 45.99 58.56 46.428 58.848 47.004C59.148 47.568 59.298 48.264 59.298 49.092C59.298 49.956 59.118 50.664 58.758 51.216C58.398 51.768 57.936 52.128 57.372 52.296C57.756 52.416 58.092 52.626 58.38 52.926C58.668 53.214 58.89 53.598 59.046 54.078C59.214 54.546 59.298 55.116 59.298 55.788C59.298 56.664 59.172 57.438 58.92 58.11C58.68 58.77 58.278 59.286 57.714 59.658C57.162 60.03 56.424 60.216 55.5 60.216Z" fill="#FF6500"/>
<defs>
<filter id="filter0_d" x="0" y="0" width="110" height="110" filterUnits="userSpaceOnUse" color-interpolation-filters="sRGB">
<feFlood flood-opacity="0" result="BackgroundImageFix"/>
<feColorMatrix in="SourceAlpha" type="matrix" values="0 0 0 0 0 0 0 0 0 0 0 0 0 0 0 0 0 0 127 0"/>
<feOffset dy="4"/>
<feGaussianBlur stdDeviation="12.5"/>
<feColorMatrix type="matrix" values="0 0 0 0 0 0 0 0 0 0 0 0 0 0 0 0 0 0 0.1 0"/>
<feBlend mode="normal" in2="BackgroundImageFix" result="effect1_dropShadow"/>
<feBlend mode="normal" in="SourceGraphic" in2="effect1_dropShadow" result="shape"/>
</filter>
</defs>
</svg>
