<svg width="110" height="110" viewBox="0 0 110 110" fill="none" xmlns="http://www.w3.org/2000/svg">
<g filter="url(#filter0_d)">
<circle cx="55" cy="51" r="30" fill="white"/>
</g>
<path d="M55.482 60.216C54.51 60.216 53.754 60.036 53.214 59.676C52.686 59.316 52.32 58.806 52.116 58.146C51.912 57.486 51.81 56.712 51.81 55.824H54.24C54.24 56.316 54.27 56.754 54.33 57.138C54.402 57.51 54.534 57.804 54.726 58.02C54.93 58.224 55.224 58.32 55.608 58.308C56.028 58.308 56.322 58.176 56.49 57.912C56.67 57.636 56.784 57.258 56.832 56.778C56.88 56.286 56.904 55.716 56.904 55.068C56.904 54.504 56.868 54.012 56.796 53.592C56.736 53.172 56.61 52.848 56.418 52.62C56.226 52.38 55.926 52.26 55.518 52.26C55.17 52.26 54.882 52.38 54.654 52.62C54.426 52.848 54.258 53.154 54.15 53.538H52.008L52.152 45.42H58.704V47.652H54.24L54.096 51.162C54.276 50.946 54.534 50.772 54.87 50.64C55.218 50.508 55.602 50.43 56.022 50.406C56.79 50.37 57.414 50.532 57.894 50.892C58.374 51.252 58.728 51.774 58.956 52.458C59.184 53.142 59.298 53.958 59.298 54.906C59.298 55.674 59.244 56.382 59.136 57.03C59.04 57.678 58.854 58.242 58.578 58.722C58.302 59.19 57.912 59.556 57.408 59.82C56.916 60.084 56.274 60.216 55.482 60.216Z" fill="#FF6500"/>
<defs>
<filter id="filter0_d" x="0" y="0" width="110" height="110" filterUnits="userSpaceOnUse" color-interpolation-filters="sRGB">
<feFlood flood-opacity="0" result="BackgroundImageFix"/>
<feColorMatrix in="SourceAlpha" type="matrix" values="0 0 0 0 0 0 0 0 0 0 0 0 0 0 0 0 0 0 127 0"/>
<feOffset dy="4"/>
<feGaussianBlur stdDeviation="12.5"/>
<feColorMatrix type="matrix" values="0 0 0 0 0 0 0 0 0 0 0 0 0 0 0 0 0 0 0.1 0"/>
<feBlend mode="normal" in2="BackgroundImageFix" result="effect1_dropShadow"/>
<feBlend mode="normal" in="SourceGraphic" in2="effect1_dropShadow" result="shape"/>
</filter>
</defs>
</svg>
