<svg width="110" height="110" viewBox="0 0 110 110" fill="none" xmlns="http://www.w3.org/2000/svg">
<g filter="url(#filter0_d)">
<circle cx="55" cy="51" r="30" fill="white"/>
</g>
<path d="M51.738 60V58.236L55.338 52.674C55.602 52.266 55.848 51.876 56.076 51.504C56.316 51.132 56.508 50.748 56.652 50.352C56.808 49.944 56.886 49.5 56.886 49.02C56.886 48.48 56.79 48.066 56.598 47.778C56.406 47.49 56.106 47.346 55.698 47.346C55.314 47.346 55.014 47.454 54.798 47.67C54.582 47.886 54.432 48.168 54.348 48.516C54.276 48.864 54.24 49.248 54.24 49.668V50.28H51.792V49.632C51.792 48.768 51.918 48.012 52.17 47.364C52.434 46.704 52.848 46.188 53.412 45.816C53.976 45.444 54.714 45.258 55.626 45.258C56.874 45.258 57.81 45.594 58.434 46.266C59.058 46.938 59.37 47.874 59.37 49.074C59.37 49.674 59.286 50.22 59.118 50.712C58.95 51.192 58.728 51.654 58.452 52.098C58.176 52.542 57.876 52.998 57.552 53.466L54.564 58.002H58.992V60H51.738Z" fill="#FF6500"/>
<defs>
<filter id="filter0_d" x="0" y="0" width="110" height="110" filterUnits="userSpaceOnUse" color-interpolation-filters="sRGB">
<feFlood flood-opacity="0" result="BackgroundImageFix"/>
<feColorMatrix in="SourceAlpha" type="matrix" values="0 0 0 0 0 0 0 0 0 0 0 0 0 0 0 0 0 0 127 0"/>
<feOffset dy="4"/>
<feGaussianBlur stdDeviation="12.5"/>
<feColorMatrix type="matrix" values="0 0 0 0 0 0 0 0 0 0 0 0 0 0 0 0 0 0 0.1 0"/>
<feBlend mode="normal" in2="BackgroundImageFix" result="effect1_dropShadow"/>
<feBlend mode="normal" in="SourceGraphic" in2="effect1_dropShadow" result="shape"/>
</filter>
</defs>
</svg>
