<svg width="39" height="39" viewBox="0 0 39 39" fill="none" xmlns="http://www.w3.org/2000/svg">
<mask id="path-1-inside-1" fill="white">
<path d="M38.3804 18.9959C38.4659 23.1776 37.1692 27.2707 34.6914 30.6402C32.2135 34.0098 28.6931 36.4677 24.676 37.6325C20.659 38.7974 16.3698 38.6042 12.4737 37.083C8.57763 35.5617 5.29239 32.7973 3.12751 29.2186C0.962638 25.6399 0.0391143 21.4469 0.500175 17.2898C0.961235 13.1328 2.78111 9.24402 5.67755 6.22668C8.574 3.20933 12.3851 1.23204 16.5199 0.601464C20.6546 -0.0291123 24.8819 0.722268 28.5461 2.73907L27.6299 4.40359C24.3321 2.58847 20.5276 1.91223 16.8063 2.47975C13.0851 3.04727 9.65503 4.82683 7.04824 7.54244C4.44144 10.258 2.80355 13.7579 2.38859 17.4993C1.97364 21.2406 2.80481 25.0144 4.7532 28.2352C6.70159 31.456 9.6583 33.9439 13.1648 35.3131C16.6712 36.6822 20.5315 36.8561 24.1469 35.8077C27.7622 34.7593 30.9306 32.5473 33.1607 29.5146C35.3907 26.482 36.5578 22.7983 36.4808 19.0348L38.3804 18.9959Z"/>
</mask>
<path d="M38.3804 18.9959C38.4659 23.1776 37.1692 27.2707 34.6914 30.6402C32.2135 34.0098 28.6931 36.4677 24.676 37.6325C20.659 38.7974 16.3698 38.6042 12.4737 37.083C8.57763 35.5617 5.29239 32.7973 3.12751 29.2186C0.962638 25.6399 0.0391143 21.4469 0.500175 17.2898C0.961235 13.1328 2.78111 9.24402 5.67755 6.22668C8.574 3.20933 12.3851 1.23204 16.5199 0.601464C20.6546 -0.0291123 24.8819 0.722268 28.5461 2.73907L27.6299 4.40359C24.3321 2.58847 20.5276 1.91223 16.8063 2.47975C13.0851 3.04727 9.65503 4.82683 7.04824 7.54244C4.44144 10.258 2.80355 13.7579 2.38859 17.4993C1.97364 21.2406 2.80481 25.0144 4.7532 28.2352C6.70159 31.456 9.6583 33.9439 13.1648 35.3131C16.6712 36.6822 20.5315 36.8561 24.1469 35.8077C27.7622 34.7593 30.9306 32.5473 33.1607 29.5146C35.3907 26.482 36.5578 22.7983 36.4808 19.0348L38.3804 18.9959Z" fill="#C4C4C4" stroke="#212529" stroke-width="6" mask="url(#path-1-inside-1)"/>
<line x1="7.47794" y1="22.1323" x2="24.6071" y2="8.32676" stroke="#212529" stroke-width="2"/>
<path d="M11.1055 26.3035L33.6848 8.10527" stroke="white" stroke-width="2"/>
<line x1="14.4779" y1="30.1323" x2="31.6071" y2="16.3268" stroke="#212529" stroke-width="2"/>
</svg>
