<svg width="27" height="27" viewBox="0 0 27 27" fill="none" xmlns="http://www.w3.org/2000/svg">
<mask id="path-1-inside-1" fill="white">
<path d="M25.8108 12.4697C26.0027 15.2146 25.2835 17.9462 23.7646 20.2408C22.2458 22.5353 20.0123 24.2646 17.4106 25.1604C14.8088 26.0562 11.9841 26.0684 9.37465 25.1953C6.76519 24.3221 4.51677 22.6123 2.9781 20.331C1.43944 18.0497 0.696517 15.3245 0.864567 12.5779C1.03262 9.83138 2.10224 7.21703 3.90756 5.14036C5.71287 3.06368 8.15297 1.64073 10.8494 1.0922C13.5459 0.543665 16.348 0.900204 18.8211 2.10652L18.2731 3.23C16.0473 2.14432 13.5254 1.82343 11.0986 2.31711C8.6718 2.81079 6.4757 4.09145 4.85092 5.96045C3.22614 7.82946 2.26348 10.1824 2.11223 12.6543C1.96099 15.1261 2.62962 17.5789 4.01441 19.632C5.39921 21.6852 7.42279 23.224 9.77131 24.0099C12.1198 24.7957 14.662 24.7847 17.0036 23.9785C19.3452 23.1723 21.3554 21.6159 22.7223 19.5508C24.0892 17.4857 24.7365 15.0273 24.5638 12.5568L25.8108 12.4697Z"/>
</mask>
<path d="M25.8108 12.4697C26.0027 15.2146 25.2835 17.9462 23.7646 20.2408C22.2458 22.5353 20.0123 24.2646 17.4106 25.1604C14.8088 26.0562 11.9841 26.0684 9.37465 25.1953C6.76519 24.3221 4.51677 22.6123 2.9781 20.331C1.43944 18.0497 0.696517 15.3245 0.864567 12.5779C1.03262 9.83138 2.10224 7.21703 3.90756 5.14036C5.71287 3.06368 8.15297 1.64073 10.8494 1.0922C13.5459 0.543665 16.348 0.900204 18.8211 2.10652L18.2731 3.23C16.0473 2.14432 13.5254 1.82343 11.0986 2.31711C8.6718 2.81079 6.4757 4.09145 4.85092 5.96045C3.22614 7.82946 2.26348 10.1824 2.11223 12.6543C1.96099 15.1261 2.62962 17.5789 4.01441 19.632C5.39921 21.6852 7.42279 23.224 9.77131 24.0099C12.1198 24.7957 14.662 24.7847 17.0036 23.9785C19.3452 23.1723 21.3554 21.6159 22.7223 19.5508C24.0892 17.4857 24.7365 15.0273 24.5638 12.5568L25.8108 12.4697Z" fill="#C4C4C4" stroke="#212529" stroke-width="6" mask="url(#path-1-inside-1)"/>
<line x1="5.3692" y1="15.0078" x2="17.0482" y2="5.59499" stroke="#212529" stroke-width="1.5"/>
<path d="M7.83984 17.9844L24.969 4.17885" stroke="#FF6500" stroke-width="1.5"/>
<line x1="10.3692" y1="21.0078" x2="22.0482" y2="11.595" stroke="#212529" stroke-width="1.5"/>
</svg>
